<svg id="Слой_1" data-name="Слой 1" xmlns="http://www.w3.org/2000/svg" viewBox="0 0 99.94 155.04"><defs><style>.cls-1{fill:#424242;}</style></defs><title>Comment</title><polygon class="cls-1" points="62.45 155.04 61.85 154.13 97.97 130.35 61.92 106.65 62.51 105.75 99.94 130.35 62.45 155.04"/><rect class="cls-1" x="69.99" y="104.18" width="1.08" height="29.11" transform="translate(-54.98 60.46) rotate(-34.58)"/><rect class="cls-1" x="55.74" y="142.38" width="29.52" height="1.08" transform="translate(-87.37 120.21) rotate(-55.75)"/><rect class="cls-1" x="88.36" y="120.7" width="1.08" height="20.21" transform="matrix(0.01, -1, 1, 0.01, -42.75, 217.99)"/><polygon class="cls-1" points="62.52 154.98 61.78 154.19 87.23 130.26 61.85 106.6 62.59 105.81 88.81 130.25 62.52 154.98"/><rect class="cls-1" x="39.05" y="91.29" width="1.08" height="78.27" transform="matrix(0, -1, 1, 0, -90.93, 169.29)"/><rect class="cls-1" width="1.08" height="130.34"/></svg>